# xmcd
#
# Track frame offsets:
#	150
#	15585
#	28361
#	38162
#	50127
#	62181
#	74393
#	91051
#	104432
#	117190
#	135288
#	151420
#	165264
#	179558
#	195712
#	207161
#	226965
#	238221
#	251800
#	265045
#	279014
#	296358
#	314954
#	323660
#
# Disc length: 4462 seconds
#
# Revision: 1
# Processed by: cddbd v1.5.2PL0 Copyright (c) Steve Scherf et al.
# Submitted via: EasyCDDAExtractor 7.5.0.1
#
DISCID=5a116c18
DTITLE=Трофим - Трофим - Best
DYEAR=2000
DGENRE=Blues
TTITLE0=Судьба
TTITLE1=Братва
TTITLE2=Вот и все
TTITLE3=Алевтина
TTITLE4=Бьюсь как рыба
TTITLE5=Моя жена
TTITLE6=Эх, дал бы кто
TTITLE7=НЛО
TTITLE8=Налоговый инспектор
TTITLE9=Морской бродяга
TTITLE10=Босота
TTITLE11=За наших Дам
TTITLE12=Дайте мне чего- нибудь
TTITLE13=Ветерок
TTITLE14=ТВ-Новости
TTITLE15=Горько
TTITLE16=Иномарка
TTITLE17=Рыбалка
TTITLE18=Снегири
TTITLE19=Корче, дело к ночи
TTITLE20=Там, там, там...
TTITLE21=Про рекламу
TTITLE22=Юбилей
TTITLE23=Фонарики
EXTD=
EXTT0=
EXTT1=
EXTT2=
EXTT3=
EXTT4=
EXTT5=
EXTT6=
EXTT7=
EXTT8=
EXTT9=
EXTT10=
EXTT11=
EXTT12=
EXTT13=
EXTT14=
EXTT15=
EXTT16=
EXTT17=
EXTT18=
EXTT19=
EXTT20=
EXTT21=
EXTT22=
EXTT23=
PLAYORDER=
